<mxfile host="app.diagrams.net" modified="2021-11-13T17:48:26.514Z" agent="5.0 (Windows NT 10.0; Win64; x64) AppleWebKit/537.36 (KHTML, like Gecko) Chrome/95.0.4638.69 Safari/537.36" etag="bBIY1LcBzD7GYUBdHxVS" version="15.7.3" type="github">
  <diagram id="TsgpJBJYaopXEeFjQ_am" name="Page-1">
    <mxGraphModel dx="593" dy="318" grid="1" gridSize="10" guides="1" tooltips="1" connect="1" arrows="1" fold="1" page="1" pageScale="1" pageWidth="827" pageHeight="1169" math="0" shadow="0">
      <root>
        <mxCell id="0" />
        <mxCell id="1" parent="0" />
        <mxCell id="UQkqmiUDQakrQ5Geq1O5-1" value="User" style="shape=umlActor;verticalLabelPosition=bottom;verticalAlign=top;html=1;outlineConnect=0;" vertex="1" parent="1">
          <mxGeometry x="70" y="330" width="30" height="60" as="geometry" />
        </mxCell>
        <mxCell id="UQkqmiUDQakrQ5Geq1O5-3" value="" style="rounded=0;whiteSpace=wrap;html=1;" vertex="1" parent="1">
          <mxGeometry x="170" y="230" width="340" height="390" as="geometry" />
        </mxCell>
        <mxCell id="UQkqmiUDQakrQ5Geq1O5-4" value="E-Commerce Desa Sambungrejo" style="text;html=1;strokeColor=none;fillColor=none;align=center;verticalAlign=middle;whiteSpace=wrap;rounded=0;" vertex="1" parent="1">
          <mxGeometry x="260" y="240" width="190" height="30" as="geometry" />
        </mxCell>
        <mxCell id="UQkqmiUDQakrQ5Geq1O5-5" value="Login" style="ellipse;whiteSpace=wrap;html=1;" vertex="1" parent="1">
          <mxGeometry x="190" y="282.5" width="100" height="40" as="geometry" />
        </mxCell>
        <mxCell id="UQkqmiUDQakrQ5Geq1O5-6" value="Register" style="ellipse;whiteSpace=wrap;html=1;" vertex="1" parent="1">
          <mxGeometry x="360" y="282.5" width="100" height="40" as="geometry" />
        </mxCell>
        <mxCell id="UQkqmiUDQakrQ5Geq1O5-7" value="" style="endArrow=classic;html=1;rounded=0;entryX=0;entryY=0.5;entryDx=0;entryDy=0;" edge="1" parent="1" source="UQkqmiUDQakrQ5Geq1O5-1" target="UQkqmiUDQakrQ5Geq1O5-5">
          <mxGeometry width="50" height="50" relative="1" as="geometry">
            <mxPoint x="390" y="430" as="sourcePoint" />
            <mxPoint x="180.00000000000182" y="410" as="targetPoint" />
          </mxGeometry>
        </mxCell>
        <mxCell id="UQkqmiUDQakrQ5Geq1O5-9" value="Menu" style="ellipse;whiteSpace=wrap;html=1;" vertex="1" parent="1">
          <mxGeometry x="190" y="340" width="100" height="40" as="geometry" />
        </mxCell>
        <mxCell id="UQkqmiUDQakrQ5Geq1O5-10" value="Pembayaran" style="ellipse;whiteSpace=wrap;html=1;" vertex="1" parent="1">
          <mxGeometry x="270" y="550" width="100" height="40" as="geometry" />
        </mxCell>
        <mxCell id="UQkqmiUDQakrQ5Geq1O5-11" value="Pencatatan Pembelian" style="ellipse;whiteSpace=wrap;html=1;" vertex="1" parent="1">
          <mxGeometry x="190" y="462.5" width="100" height="40" as="geometry" />
        </mxCell>
        <mxCell id="UQkqmiUDQakrQ5Geq1O5-19" value="&lt;font style=&quot;font-size: 11px&quot;&gt;{Include}&lt;/font&gt;" style="text;html=1;strokeColor=none;fillColor=none;align=center;verticalAlign=middle;whiteSpace=wrap;rounded=0;rotation=0;" vertex="1" parent="1">
          <mxGeometry x="317.5" y="282.5" width="5" height="25" as="geometry" />
        </mxCell>
        <mxCell id="UQkqmiUDQakrQ5Geq1O5-25" value="" style="endArrow=classic;html=1;rounded=0;fontSize=11;entryX=0;entryY=0.5;entryDx=0;entryDy=0;" edge="1" parent="1" source="UQkqmiUDQakrQ5Geq1O5-1" target="UQkqmiUDQakrQ5Geq1O5-9">
          <mxGeometry width="50" height="50" relative="1" as="geometry">
            <mxPoint x="290" y="460" as="sourcePoint" />
            <mxPoint x="340" y="410" as="targetPoint" />
          </mxGeometry>
        </mxCell>
        <mxCell id="UQkqmiUDQakrQ5Geq1O5-29" value="" style="endArrow=classic;html=1;rounded=0;fontSize=11;entryX=0.563;entryY=1.008;entryDx=0;entryDy=0;dashed=1;entryPerimeter=0;exitX=0.5;exitY=0;exitDx=0;exitDy=0;" edge="1" parent="1" source="UQkqmiUDQakrQ5Geq1O5-10" target="UQkqmiUDQakrQ5Geq1O5-11">
          <mxGeometry width="50" height="50" relative="1" as="geometry">
            <mxPoint x="280" y="460" as="sourcePoint" />
            <mxPoint x="340" y="420" as="targetPoint" />
          </mxGeometry>
        </mxCell>
        <mxCell id="UQkqmiUDQakrQ5Geq1O5-31" value="&lt;font style=&quot;font-size: 11px&quot;&gt;{Include}&lt;/font&gt;" style="text;html=1;strokeColor=none;fillColor=none;align=center;verticalAlign=middle;whiteSpace=wrap;rounded=0;rotation=90;" vertex="1" parent="1">
          <mxGeometry x="230" y="405" width="40" height="25" as="geometry" />
        </mxCell>
        <mxCell id="UQkqmiUDQakrQ5Geq1O5-35" value="" style="endArrow=classic;html=1;rounded=0;dashed=1;fontSize=11;exitX=1;exitY=0.5;exitDx=0;exitDy=0;entryX=0;entryY=0.5;entryDx=0;entryDy=0;" edge="1" parent="1" source="UQkqmiUDQakrQ5Geq1O5-5" target="UQkqmiUDQakrQ5Geq1O5-6">
          <mxGeometry width="50" height="50" relative="1" as="geometry">
            <mxPoint x="300" y="400" as="sourcePoint" />
            <mxPoint x="350" y="350" as="targetPoint" />
          </mxGeometry>
        </mxCell>
        <mxCell id="UQkqmiUDQakrQ5Geq1O5-36" value="Call Center" style="ellipse;whiteSpace=wrap;html=1;" vertex="1" parent="1">
          <mxGeometry x="360" y="340" width="100" height="40" as="geometry" />
        </mxCell>
        <mxCell id="UQkqmiUDQakrQ5Geq1O5-37" value="" style="endArrow=classic;html=1;rounded=0;dashed=1;fontSize=11;exitX=1;exitY=0.5;exitDx=0;exitDy=0;entryX=0;entryY=0.5;entryDx=0;entryDy=0;" edge="1" parent="1" source="UQkqmiUDQakrQ5Geq1O5-9" target="UQkqmiUDQakrQ5Geq1O5-36">
          <mxGeometry width="50" height="50" relative="1" as="geometry">
            <mxPoint x="300" y="400" as="sourcePoint" />
            <mxPoint x="350" y="350" as="targetPoint" />
          </mxGeometry>
        </mxCell>
        <mxCell id="UQkqmiUDQakrQ5Geq1O5-38" value="Sms Center" style="ellipse;whiteSpace=wrap;html=1;" vertex="1" parent="1">
          <mxGeometry x="364" y="390" width="100" height="40" as="geometry" />
        </mxCell>
        <mxCell id="UQkqmiUDQakrQ5Geq1O5-40" value="Maps" style="ellipse;whiteSpace=wrap;html=1;" vertex="1" parent="1">
          <mxGeometry x="364" y="440" width="100" height="40" as="geometry" />
        </mxCell>
        <mxCell id="UQkqmiUDQakrQ5Geq1O5-41" value="Update User" style="ellipse;whiteSpace=wrap;html=1;" vertex="1" parent="1">
          <mxGeometry x="364" y="490" width="100" height="40" as="geometry" />
        </mxCell>
        <mxCell id="UQkqmiUDQakrQ5Geq1O5-44" value="" style="endArrow=classic;html=1;rounded=0;dashed=1;fontSize=11;entryX=0;entryY=0.5;entryDx=0;entryDy=0;" edge="1" parent="1" target="UQkqmiUDQakrQ5Geq1O5-38">
          <mxGeometry width="50" height="50" relative="1" as="geometry">
            <mxPoint x="290" y="360" as="sourcePoint" />
            <mxPoint x="350" y="410" as="targetPoint" />
          </mxGeometry>
        </mxCell>
        <mxCell id="UQkqmiUDQakrQ5Geq1O5-45" value="" style="endArrow=classic;html=1;rounded=0;dashed=1;fontSize=11;entryX=0;entryY=0.5;entryDx=0;entryDy=0;" edge="1" parent="1" target="UQkqmiUDQakrQ5Geq1O5-40">
          <mxGeometry width="50" height="50" relative="1" as="geometry">
            <mxPoint x="290" y="360" as="sourcePoint" />
            <mxPoint x="350" y="410" as="targetPoint" />
          </mxGeometry>
        </mxCell>
        <mxCell id="UQkqmiUDQakrQ5Geq1O5-46" value="" style="endArrow=classic;html=1;rounded=0;dashed=1;fontSize=11;entryX=0;entryY=0.5;entryDx=0;entryDy=0;" edge="1" parent="1" target="UQkqmiUDQakrQ5Geq1O5-41">
          <mxGeometry width="50" height="50" relative="1" as="geometry">
            <mxPoint x="290" y="360" as="sourcePoint" />
            <mxPoint x="350" y="410" as="targetPoint" />
          </mxGeometry>
        </mxCell>
        <mxCell id="UQkqmiUDQakrQ5Geq1O5-47" value="&lt;font style=&quot;font-size: 11px&quot;&gt;{Include}&lt;/font&gt;" style="text;html=1;strokeColor=none;fillColor=none;align=center;verticalAlign=middle;whiteSpace=wrap;rounded=0;rotation=0;" vertex="1" parent="1">
          <mxGeometry x="302.5" y="340" width="40" height="25" as="geometry" />
        </mxCell>
        <mxCell id="UQkqmiUDQakrQ5Geq1O5-48" value="&lt;font style=&quot;font-size: 11px&quot;&gt;{Include}&lt;/font&gt;" style="text;html=1;strokeColor=none;fillColor=none;align=center;verticalAlign=middle;whiteSpace=wrap;rounded=0;rotation=30;" vertex="1" parent="1">
          <mxGeometry x="312.5" y="365" width="40" height="25" as="geometry" />
        </mxCell>
        <mxCell id="UQkqmiUDQakrQ5Geq1O5-49" value="&lt;font style=&quot;font-size: 11px&quot;&gt;{Include}&lt;/font&gt;" style="text;html=1;strokeColor=none;fillColor=none;align=center;verticalAlign=middle;whiteSpace=wrap;rounded=0;rotation=60;" vertex="1" parent="1">
          <mxGeometry x="325" y="405" width="40" height="25" as="geometry" />
        </mxCell>
        <mxCell id="UQkqmiUDQakrQ5Geq1O5-50" value="&lt;font style=&quot;font-size: 11px&quot;&gt;{Include}&lt;/font&gt;" style="text;html=1;strokeColor=none;fillColor=none;align=center;verticalAlign=middle;whiteSpace=wrap;rounded=0;rotation=60;" vertex="1" parent="1">
          <mxGeometry x="340" y="462.5" width="40" height="25" as="geometry" />
        </mxCell>
        <mxCell id="UQkqmiUDQakrQ5Geq1O5-51" value="" style="endArrow=classic;html=1;rounded=0;dashed=1;fontSize=11;exitX=0.5;exitY=1;exitDx=0;exitDy=0;entryX=0.5;entryY=0;entryDx=0;entryDy=0;" edge="1" parent="1" source="UQkqmiUDQakrQ5Geq1O5-9" target="UQkqmiUDQakrQ5Geq1O5-11">
          <mxGeometry width="50" height="50" relative="1" as="geometry">
            <mxPoint x="300" y="460" as="sourcePoint" />
            <mxPoint x="350" y="410" as="targetPoint" />
          </mxGeometry>
        </mxCell>
        <mxCell id="UQkqmiUDQakrQ5Geq1O5-53" value="&lt;font style=&quot;font-size: 11px&quot;&gt;{Extend}&lt;/font&gt;" style="text;html=1;strokeColor=none;fillColor=none;align=center;verticalAlign=middle;whiteSpace=wrap;rounded=0;rotation=35;" vertex="1" parent="1">
          <mxGeometry x="272.5" y="505" width="40" height="25" as="geometry" />
        </mxCell>
      </root>
    </mxGraphModel>
  </diagram>
</mxfile>
